<?xml version="1.0" standalone="no"?>
<!DOCTYPE svg PUBLIC "-//W3C//DTD SVG 20010904//EN"
 "http://www.w3.org/TR/2001/REC-SVG-20010904/DTD/svg10.dtd">
<svg version="1.0" xmlns="http://www.w3.org/2000/svg"
 width="700.000000pt" height="700.000000pt" viewBox="0 0 700.000000 700.000000"
 preserveAspectRatio="xMidYMid meet">
<metadata>
Created by potrace 1.11, written by Peter Selinger 2001-2013
</metadata>
<g transform="translate(0.000000,700.000000) scale(0.100000,-0.100000)"
fill="#000000" stroke="none">
<path d="M3299 6226 c-2 -2 -36 -6 -74 -10 -39 -4 -81 -8 -95 -11 -255 -44
-229 -38 -347 -70 -100 -28 -292 -93 -353 -121 -133 -62 -209 -100 -292 -148
-371 -214 -696 -523 -931 -883 -197 -303 -357 -719 -402 -1048 -3 -23 -7 -50
-9 -61 -21 -109 -29 -492 -13 -649 30 -288 122 -622 243 -880 183 -390 483
-762 819 -1015 33 -25 62 -47 65 -50 6 -6 174 -114 230 -147 70 -42 258 -132
355 -171 137 -55 371 -124 463 -138 20 -3 44 -7 52 -9 8 -2 38 -7 65 -11 28
-3 52 -7 55 -9 30 -18 527 -27 645 -12 346 45 615 118 875 240 116 54 385 212
450 264 8 6 60 48 115 91 243 193 446 427 632 727 74 119 181 351 232 502 37
111 87 289 97 351 2 15 9 50 14 77 28 147 39 302 35 510 -4 198 -7 248 -25
355 -5 30 -12 73 -16 95 -15 104 -93 388 -128 470 -8 17 -31 71 -52 120 -126
299 -325 593 -565 835 -58 58 -131 127 -164 155 -33 27 -62 52 -65 55 -13 15
-223 161 -290 202 -188 113 -377 200 -566 261 -107 35 -281 80 -354 91 -19 3
-48 8 -65 11 -16 3 -50 8 -75 11 -25 3 -58 8 -75 11 -35 5 -481 14 -486 9z"/>
</g>
</svg>
